<svg xmlns="http://www.w3.org/2000/svg" viewBox="0 0 512 512" width="512" height="512">
  <defs>
    <radialGradient id="bg-grad" cx="50%" cy="30%" r="70%">
      <stop offset="0%" stop-color="#0f0a1a"/>
      <stop offset="100%" stop-color="#0a0b0f"/>
    </radialGradient>
    <radialGradient id="glow" cx="50%" cy="50%" r="50%">
      <stop offset="0%" stop-color="#8B5CF6" stop-opacity="0.9"/>
      <stop offset="100%" stop-color="#8B5CF6" stop-opacity="0"/>
    </radialGradient>
    <linearGradient id="badge-grad" x1="0%" y1="0%" x2="100%" y2="100%">
      <stop offset="0%" stop-color="#8B5CF6"/>
      <stop offset="100%" stop-color="#6D28D9"/>
    </linearGradient>
    <linearGradient id="text-grad" x1="0%" y1="0%" x2="100%" y2="0%">
      <stop offset="0%" stop-color="#8B5CF6"/>
      <stop offset="100%" stop-color="#4C1D95"/>
    </linearGradient>
    <filter id="shadow">
      <feDropShadow dx="0" dy="0" stdDeviation="10" flood-color="#8B5CF6" flood-opacity="1.1"/>
    </filter>
    <filter id="glow-filter">
      <feGaussianBlur stdDeviation="4" result="blur"/>
      <feMerge><feMergeNode in="blur"/><feMergeNode in="SourceGraphic"/></feMerge>
    </filter>
  </defs>

  <!-- Background -->
  <rect width="512" height="512" fill="url(#bg-grad)" rx="24"/>

  <!-- Background pattern -->
  
        <circle cx="60" cy="60" r="2" fill="#8B5CF6" opacity="0.4"/>
        <circle cx="150" cy="40" r="1.5" fill="#8B5CF6" opacity="0.3"/>
        <circle cx="420" cy="80" r="2" fill="#8B5CF6" opacity="0.4"/>
        <circle cx="460" cy="160" r="1.5" fill="#8B5CF6" opacity="0.3"/>
        <circle cx="40" cy="300" r="2" fill="#8B5CF6" opacity="0.4"/>
        <circle cx="80" cy="420" r="1.5" fill="#8B5CF6" opacity="0.3"/>
        <circle cx="430" cy="380" r="2" fill="#8B5CF6" opacity="0.4"/>
        <circle cx="470" cy="460" r="1.5" fill="#8B5CF6" opacity="0.3"/>
        <circle cx="200" cy="30" r="1" fill="#8B5CF6" opacity="0.2"/>
        <circle cx="350" cy="490" r="1" fill="#8B5CF6" opacity="0.2"/>
        <circle cx="30" cy="200" r="1" fill="#8B5CF6" opacity="0.2"/>
        <circle cx="490" cy="300" r="1" fill="#8B5CF6" opacity="0.2"/>
      

  <!-- Ambient glow -->
  <circle cx="256" cy="220" r="190" fill="url(#glow)"/>

  <!-- Frame -->
  
        <path d="M256,60 L390,120 L390,280 Q390,370 256,410 Q122,370 122,280 L122,120 Z"
          fill="none" stroke="url(#badge-grad)" stroke-width="6" opacity="0.7"/>
        <path d="M256,80 L375,135 L375,278 Q375,358 256,395 Q137,358 137,278 L137,135 Z"
          fill="none" stroke="url(#badge-grad)" stroke-width="4" opacity="0.4"/>
      

  <!-- Inner fill subtle -->
  <circle cx="256" cy="220" r="120" fill="#8B5CF6" opacity="0.05"/>

  <!-- TRIVQ Token Symbol — toujours présent et central -->
  
    <!-- TRIVQ Token Symbol -->
    <circle cx="256" cy="185" r="80" fill="url(#badge-grad)" opacity="0.9" filter="url(#shadow)"/>
    <circle cx="256" cy="185" r="76" fill="none" stroke="rgba(255,255,255,0.3)" stroke-width="1.5"/>
    <text x="256" y="197" text-anchor="middle" 
      font-size="44" font-weight="900" font-family="Arial Black, sans-serif"
      fill="rgba(10,11,15,0.9)">Q</text>
    <text x="256" y="165" text-anchor="middle"
      font-size="17.6" font-weight="bold" font-family="Arial, sans-serif"
      fill="rgba(10,11,15,0.7)">$TRIVQ</text>
  

  <!-- Category emoji -->
  <text x="256" y="305" text-anchor="middle" font-size="32"
    font-family="Apple Color Emoji, Segoe UI Emoji, sans-serif">🏆</text>

  <!-- NFT Name -->
  <text x="256" y="345" text-anchor="middle" font-size="20" font-weight="900"
    font-family="Arial Black, sans-serif" fill="#8B5CF6"
    filter="url(#shadow)">Sport Champion #123</text>

  <!-- Category -->
  <text x="256" y="368" text-anchor="middle" font-size="12"
    font-family="Arial, sans-serif" fill="rgba(255,255,255,0.45)">Sports</text>

  <!-- Rarity badge -->
  <rect x="176" y="380" width="160" height="24" rx="12"
    fill="#8B5CF6" opacity="0.15"/>
  <rect x="176" y="380" width="160" height="24" rx="12"
    fill="none" stroke="#8B5CF6" stroke-width="1" opacity="0.4"/>
  <text x="256" y="397" text-anchor="middle" font-size="11" font-weight="bold"
    font-family="Arial, sans-serif" fill="#8B5CF6">⬡ LEGENDARY</text>

  <!-- Edition -->
  <text x="256" y="430" text-anchor="middle" font-size="10"
    font-family="Arial, sans-serif" fill="rgba(255,255,255,0.25)">#123 / 150</text>

  <!-- TriviaQ watermark -->
  <text x="256" y="455" text-anchor="middle" font-size="10"
    font-family="Arial, sans-serif" fill="rgba(255,255,255,0.15)">TriviaQ · Celo Network</text>

  <!-- Decorative stars -->
  <text x="40" y="50" text-anchor="middle" font-size="12" fill="#8B5CF6" opacity="0.4">✦</text>
<text x="472" y="50" text-anchor="middle" font-size="12" fill="#8B5CF6" opacity="0.4">✦</text>
<text x="40" y="472" text-anchor="middle" font-size="12" fill="#8B5CF6" opacity="0.4">✦</text>
<text x="472" y="472" text-anchor="middle" font-size="12" fill="#8B5CF6" opacity="0.4">✦</text>
<text x="256" y="30" text-anchor="middle" font-size="12" fill="#8B5CF6" opacity="0.4">✦</text>
<text x="256" y="490" text-anchor="middle" font-size="12" fill="#8B5CF6" opacity="0.4">✦</text>
<text x="30" y="256" text-anchor="middle" font-size="12" fill="#8B5CF6" opacity="0.4">✦</text>
<text x="490" y="256" text-anchor="middle" font-size="12" fill="#8B5CF6" opacity="0.4">✦</text>
<text x="100" y="100" text-anchor="middle" font-size="12" fill="#8B5CF6" opacity="0.4">✦</text>
<text x="412" y="100" text-anchor="middle" font-size="12" fill="#8B5CF6" opacity="0.4">✦</text>
<text x="100" y="412" text-anchor="middle" font-size="12" fill="#8B5CF6" opacity="0.4">✦</text>
<text x="412" y="412" text-anchor="middle" font-size="12" fill="#8B5CF6" opacity="0.4">✦</text>
<text x="170" y="40" text-anchor="middle" font-size="12" fill="#8B5CF6" opacity="0.4">✦</text>
<text x="342" y="40" text-anchor="middle" font-size="12" fill="#8B5CF6" opacity="0.4">✦</text>
</svg>